# xmcd
#
# Track frame offsets: 
#        150
#        17400
#        34896
#        50762
#        62855
#        81038
#        96973
#        114997
#        146643
#        158054
#        183125
#        195738
#
# Disc length: 2768 seconds
#
# Revision: 1
# Processed by: cddbd v1.5.2PL0 Copyright (c) Steve Scherf et al.
# Submitted via: ExactAudioCopy v0.95b4
#
DISCID=9b0ace0c
DTITLE=Nick Charles - Travelling Fingerpicker
DYEAR=2004
DGENRE=Blues
TTITLE0=Ship To Shore
TTITLE1=Two Wells
TTITLE2=The St Jude Rag
TTITLE3=Down At Millows House
TTITLE4=Breakfast At Winfield
TTITLE5=Anywhere With You
TTITLE6=Half Moon Bay
TTITLE7=Travelling Fingerpicker
TTITLE8=Deep Creek Turnaround
TTITLE9=Norwegian Wood
TTITLE10=Jasmine
TTITLE11=Lazybones
EXTD=YEAR: 2004
EXTT0=
EXTT1=
EXTT2=
EXTT3=
EXTT4=
EXTT5=
EXTT6=
EXTT7=
EXTT8=
EXTT9=
EXTT10=
EXTT11=
PLAYORDER=
